<svg xmlns="http://www.w3.org/2000/svg" width="24" height="24" viewBox="0 0 24 24"><path d="M18 16.078c1.594 0 2.906 1.313 2.906 2.906S19.593 21.937 18 21.937s-2.906-1.36-2.906-2.953c0-.234 0-.47.047-.656l-7.077-4.125C7.5 14.72 6.797 15 6 15c-1.64 0-3-1.36-3-3s1.36-3 3-3c.797 0 1.5.28 2.063.797l7.03-4.078c-.046-.235-.093-.47-.093-.704 0-1.64 1.36-3 3-3s3 1.36 3 3-1.36 3-3 3c-.797 0-1.5-.328-2.063-.844l-7.03 4.125c.046.234.093.47.093.703s-.047.47-.094.703l7.125 4.125c.517-.47 1.22-.75 1.97-.75z"/></svg>